inDegrees=no
num_controls=7
num_derivatives=13
num_iterations=214
num_multipliers=7
num_parameters=0
num_slacks=7
num_states=26
objective=0.506841
objective_accelerations=0.040687
objective_balance=0.003821
objective_effort=0.030619
objective_height=0.319616
objective_ligament=0.112097
solver_duration=2932.048042
status=Solve_Succeeded
success=true
DataType=double
version=3
OpenSimVersion=4.5
endheader
time	/jointset/ground_pelvis/pelvis_tilt/value	/jointset/ground_pelvis/pelvis_tx/value	/jointset/ground_pelvis/pelvis_ty/value	/jointset/hip_l/hip_flexion_l/value	/jointset/hip_l/hip_adduction_l/value	/jointset/hip_l/hip_rotation_l/value	/jointset/back/lumbar_extension/value	/jointset/patellofemoral_l/patellar_flexion_l/value	/jointset/knee_l/knee_flexion_l/value	/jointset/knee_l/knee_adduction_l/value	/jointset/knee_l/knee_rotation_l/value	/jointset/ankle_l/ankle_angle_l/value	/jointset/subtalar_l/subtalar_angle_l/value	/jointset/ground_pelvis/pelvis_tilt/speed	/jointset/ground_pelvis/pelvis_tx/speed	/jointset/ground_pelvis/pelvis_ty/speed	/jointset/hip_l/hip_flexion_l/speed	/jointset/hip_l/hip_adduction_l/speed	/jointset/hip_l/hip_rotation_l/speed	/jointset/back/lumbar_extension/speed	/jointset/patellofemoral_l/patellar_flexion_l/speed	/jointset/knee_l/knee_flexion_l/speed	/jointset/knee_l/knee_adduction_l/speed	/jointset/knee_l/knee_rotation_l/speed	/jointset/ankle_l/ankle_angle_l/speed	/jointset/subtalar_l/subtalar_angle_l/speed	/forceset/tau_hip_flexion_l	/forceset/tau_hip_adduction_l	/forceset/tau_hip_rotation_l	/forceset/tau_knee_flexion_l	/forceset/tau_ankle_angle_l	/forceset/tau_subtalar_angle_l	/forceset/tau_lumbar_extension	lambda_cid13_p0	lambda_cid13_p1	lambda_cid13_p2	lambda_cid13_p3	lambda_cid13_p4	lambda_cid13_p5	lambda_cid14_p0	/jointset/ground_pelvis/pelvis_tilt/accel	/jointset/ground_pelvis/pelvis_tx/accel	/jointset/ground_pelvis/pelvis_ty/accel	/jointset/hip_l/hip_flexion_l/accel	/jointset/hip_l/hip_adduction_l/accel	/jointset/hip_l/hip_rotation_l/accel	/jointset/back/lumbar_extension/accel	/jointset/patellofemoral_l/patellar_flexion_l/accel	/jointset/knee_l/knee_flexion_l/accel	/jointset/knee_l/knee_adduction_l/accel	/jointset/knee_l/knee_rotation_l/accel	/jointset/ankle_l/ankle_angle_l/accel	/jointset/subtalar_l/subtalar_angle_l/accel	gamma_cid13_p0	gamma_cid13_p1	gamma_cid13_p2	gamma_cid13_p3	gamma_cid13_p4	gamma_cid13_p5	gamma_cid14_p0
1.5	-0.02465660966721319	-0.03390846665831151	0.8689835137712689	0.6472915356249791	-0.2933923634141627	-0.1998759166654887	-0.7883395145818158	0.621249453859251	0.6212494538592349	-0.06704925588095373	-0.172510368078924	0.05411792083529122	0.02096140648278576	0.4757086562262439	0.2546172237202468	0.3586697859096122	-1.939734439974309	0.1956609887887173	-0.6093947849357653	0.8549514797767879	-1.694719366652367	-1.694719366652372	0.0686029327393757	-0.01113269617754562	-0.2677075150612145	0.1219244516858648	-0.2150472509122931	0.03184942535053519	-0.007589202168210964	-0.1746091819424107	0.1060503640108772	0.03586329671405979	0.2856514593921959	-8.26804653786011	-15.59118177465332	3.702939109661514	-10.24012849652424	-666.1059615156103	-68.00959781040467	-20.44010777717248	0.2225955804187253	0.71007719635138	-0.5826562293955645	-0.3649443834441757	0.485070751068347	0.2748021295151991	1.777233968776454	0.1557252686886466	0.1557252686886456	-0.0677226956325824	0.0008259220079615054	0.579702505536237	0.6751887689217566	1.816717894886722e-07	6.317836551327696e-07	-8.084874219237198e-07	2.971104110462677e-08	1.915970278238622e-07	1.750856282897723e-07	1.900855588328255e-07
1.51	-0.01988901272588556	-0.03132706563908603	0.8725405488811623	0.6278776524916196	-0.2914128367135036	-0.2059552937614259	-0.7797025481165248	0.6043115770768187	0.6043115770768044	-0.0663690480915109	-0.1726223065086774	0.05146977478029159	0.02221293025039597	0.4777341633850533	0.2616319501394815	0.35268248827854	-1.942810493177164	0.2001921155725644	-0.6064028924074201	0.8723162062567921	-1.692663453156083	-1.692663453156085	0.06737389582826155	-0.01124947320960791	-0.2618899641024612	0.1283347339231669	-0.2065102589381641	0.03042277670016492	-0.00758784284637988	-0.1733133449587709	0.1074276451509913	0.03471918846911018	0.2780355547133609	-7.658634000098431	-15.2329493190246	3.68232131256834	-10.16894405042152	-662.4963485643275	-68.04425537777578	-20.90518508830354	0.1810628995943864	0.6925215218521573	-0.6149389609379322	-0.2441591505968024	0.4293069558657328	0.3232247247765199	1.697250933952538	0.2593674580002849	0.2593674580008322	-0.160133103008114	-0.01727012141864551	0.5875637171544953	0.6171069864250112	1.805671120920033e-07	6.275299029365506e-07	-8.043461365538826e-07	2.876348498641969e-08	1.962771495163128e-07	1.839673596006703e-07	1.881606452831832e-07
1.52	-0.01510345378977107	-0.02867644712423972	0.8760360765285501	0.6084399641538545	-0.2893895640822389	-0.2120023835500248	-0.7708957025971657	0.5874000280429301	0.5874000280429165	-0.06570305845401586	-0.1727352808298685	0.04888076070010149	0.0235271886474374	0.4793010551831521	0.2684607228444105	0.3463682934084743	-1.944495480855649	0.2044101749093213	-0.6029373234677797	0.8889272905904015	-1.689453816943716	-1.689453816943714	0.06575930235085704	-0.01133987446588267	-0.2558811200993246	0.1344713775720907	-0.1979732669640385	0.02899612804979647	-0.007586483524581244	-0.1720175079751305	0.108804926291107	0.03357508022416353	0.2704196500345227	-7.051604764824158	-14.87553646288965	3.663247757281246	-10.13644824457334	-658.9460910281953	-68.12183431643452	-21.33965855071336	0.1308725082766871	0.6728864534902054	-0.6480356771942606	-0.08673127857016105	0.4224572616503213	0.3695374117742437	1.626505539497505	0.3864698119053659	0.3864698119053627	-0.1448340088906502	0.006101077165477165	0.6179611144128087	0.6204610512460713	1.789053068731924e-07	6.190371245236121e-07	-7.966683289587087e-07	2.720369656578568e-08	2.009964605165271e-07	1.914679400112538e-07	1.853026247808191e-07
1.53	-0.01030453300770764	-0.02595854327199552	0.879466882970025	0.5889923745343428	-0.2873257022691597	-0.2180124989698381	-0.7619266400573964	0.5705262924157746	0.570526292415771	-0.06505511575296612	-0.1728489431337318	0.04635271485206954	0.02490140641009799	0.4804042826918297	0.2750813453788678	0.3397434234967641	-1.94478734814794	0.208304366831769	-0.5990121979343458	0.9047470138131166	-1.685102071568493	-1.685102071568497	0.06376378870723828	-0.01138509059160595	-0.2497036962236868	0.1403193303794986	-0.1893294433720729	0.02742778502643898	-0.007584139013421982	-0.170886224677603	0.1102015739979676	0.03230646068476925	0.262710415561036	-6.458408120988022	-14.46014568562809	3.633238918337776	-10.00257617679946	-655.5604610566	-68.13809501244239	-21.74081703100236	0.08824411109665214	0.6508495814796272	-0.6771066954003172	0.03487170103360981	0.3642334871556752	0.4152082461607094	1.538975181144567	0.4881765596994186	0.4881765596986551	-0.2366629450542458	-0.008871434166159141	0.6213081208297639	0.5590313802859428	1.766515533433557e-07	6.060403807554091e-07	-7.852329664991144e-07	2.499341132382309e-08	2.057574101562403e-07	1.975010475902531e-07	1.814531781411882e-07
1.54	-0.005496940702768585	-0.02317559330879557	0.8828299619029346	0.5695489234730277	-0.2852246318709312	-0.2239811215099115	-0.7528035263919027	0.5537018041742454	0.5537018041742506	-0.06442907876894861	-0.1729628652941935	0.04388717826213217	0.02633251749779229	0.4810353597578367	0.2814699450355602	0.3328227916954191	-1.943667769216549	0.2118518919387598	-0.5946387475196006	0.9197375157352732	-1.679604339818523	-1.679604339818532	0.06137815894535031	-0.0113918457863261	-0.2433792684804299	0.1458500425788174	-0.1806856197801099	0.02585944200308436	-0.007581794502295068	-0.1697549413800749	0.11159822170483	0.03103784114537913	0.2550011810875462	-5.8679850003337	-14.04504577706986	3.604164103670406	-9.904038976042443	-652.2350282492573	-68.19476621409187	-22.10609023833526	0.03644241974261484	0.6264818779371666	-0.7071880551212185	0.1955579661660332	0.3531238985589248	0.4592023880365338	1.460661279385762	0.6156670868548269	0.6156670868548355	-0.2228572325444855	0.01379326336611104	0.6473618879365662	0.5570129296282549	1.743848147567976e-07	5.905579111776843e-07	-7.71623880273684e-07	2.191133794532694e-08	2.12020845435673e-07	2.02167594606779e-07	1.770756265386312e-07
1.55	-0.0006854108062950836	-0.02032999032891311	0.8861224097416595	0.5501237498844135	-0.2830898250545081	-0.2299038112590884	-0.7435347827663106	0.5369380118845709	0.5369380118845679	-0.06382877049947648	-0.1730765711180852	0.04148556476741135	0.02781733836722546	0.4811889683301001	0.2876042862539068	0.3256220087379539	-1.941123528212829	0.2150469985952573	-0.5898295627946603	0.933861020232054	-1.672957999559426	-1.672957999559418	0.05862112247421744	-0.01134071721926554	-0.2369237215446993	0.1510558742371917	-0.1719375008399019	0.02415430496151569	-0.007578754437076227	-0.1688156168442483	0.1130702086391503	0.0296371092541484	0.2472115452590495	-5.274968123906471	-13.57073866097121	3.563039375382206	-9.722646703847383	-649.0937526235803	-68.18758575700197	-22.43303318025289	-0.007409806357923417	0.5999586514870636	-0.7331936214515351	0.3203912977713578	0.2933376582236253	0.5023870636364616	1.365666662196396	0.7185014150653585	0.7185014150678043	-0.3114252237215989	0.001907383364716675	0.6476290061583438	0.4936274046269123	1.721031151266257e-07	5.7221145316725e-07	-7.555102862310948e-07	1.78248130182161e-08	2.200154054739128e-07	2.05259626192629e-07	1.720896061744421e-07
1.56	0.004125209199437839	-0.01742443425530651	0.8893415157097312	0.5307313255318969	-0.2809249404497125	-0.2357762870512336	-0.734129309770276	0.5202465597814134	0.5202465597814011	-0.06325789226858469	-0.1731895387103049	0.03914910232400136	0.02935246937737939	0.480853381609314	0.2934605637803918	0.3181544175647965	-1.937117921997258	0.2178674496128894	-0.5845959561131717	0.9470833898237205	-1.665136302515201	-1.665136302515176	0.05549215123012919	-0.0112441994526572	-0.230349058218288	0.1559120707229608	-0.1631893818996949	0.02244916791995091	-0.007575714371889921	-0.1678762923084204	0.1145421955734728	0.02823637736292305	0.2394219094305506	-4.684875335034128	-13.09611640486384	3.522089921020166	-9.574183754150335	-646.0101640273384	-68.21723757080295	-22.71952693768391	-0.06139663886720888	0.5708691395648194	-0.7605496982596728	0.487831008536334	0.2781927707858551	0.544086779346158	1.280434298362948	0.8507384438804397	0.8507384438804402	-0.2972441871355593	0.02287110327567746	0.6711851660726456	0.487085895107192	1.727669762007025e-07	5.578176634533293e-07	-7.392733426509864e-07	8.612895609661945e-09	2.441545007728853e-07	2.074673901732397e-07	1.673077485772456e-07
